<mxfile host="app.diagrams.net" modified="2024-03-23T16:27:50.794Z" agent="Mozilla/5.0 (Windows NT 10.0; Win64; x64) AppleWebKit/537.36 (KHTML, like Gecko) Chrome/122.0.0.0 Safari/537.36" version="24.1.0" etag="87VxSV5RTfS9DKv_yRF1" type="github">
  <diagram name="Page-1" id="B7xErgNoogPWDfR6X-HO">
    <mxGraphModel>
      <root>
        <mxCell id="0" />
        <mxCell id="1" parent="0" />
      </root>
    </mxGraphModel>
  </diagram>
</mxfile>
